<svg id="visual" viewBox="0 0 1080 300" width="1080" height="300" xmlns="http://www.w3.org/2000/svg" xmlns:xlink="http://www.w3.org/1999/xlink" version="1.1"><path d="M0 181L18 185.7C36 190.3 72 199.7 108 206.2C144 212.7 180 216.3 216 214.8C252 213.3 288 206.7 324 201.7C360 196.7 396 193.3 432 197.3C468 201.3 504 212.7 540 214.5C576 216.3 612 208.7 648 208.2C684 207.7 720 214.3 756 215.8C792 217.3 828 213.7 864 207C900 200.3 936 190.7 972 194.5C1008 198.3 1044 215.7 1062 224.3L1080 233L1080 301L1062 301C1044 301 1008 301 972 301C936 301 900 301 864 301C828 301 792 301 756 301C720 301 684 301 648 301C612 301 576 301 540 301C504 301 468 301 432 301C396 301 360 301 324 301C288 301 252 301 216 301C180 301 144 301 108 301C72 301 36 301 18 301L0 301Z" fill="#df0228"></path><path d="M0 226L18 227.3C36 228.7 72 231.3 108 232.8C144 234.3 180 234.7 216 230.8C252 227 288 219 324 221.2C360 223.3 396 235.7 432 237.2C468 238.7 504 229.3 540 225.3C576 221.3 612 222.7 648 223.5C684 224.3 720 224.7 756 223.7C792 222.7 828 220.3 864 223.2C900 226 936 234 972 239.5C1008 245 1044 248 1062 249.5L1080 251L1080 301L1062 301C1044 301 1008 301 972 301C936 301 900 301 864 301C828 301 792 301 756 301C720 301 684 301 648 301C612 301 576 301 540 301C504 301 468 301 432 301C396 301 360 301 324 301C288 301 252 301 216 301C180 301 144 301 108 301C72 301 36 301 18 301L0 301Z" fill="#bf0122"></path><path d="M0 256L18 255.8C36 255.7 72 255.3 108 255C144 254.7 180 254.3 216 258.2C252 262 288 270 324 268.3C360 266.7 396 255.3 432 250.3C468 245.3 504 246.7 540 251.2C576 255.7 612 263.3 648 267.5C684 271.7 720 272.3 756 268.7C792 265 828 257 864 252.5C900 248 936 247 972 248C1008 249 1044 252 1062 253.5L1080 255L1080 301L1062 301C1044 301 1008 301 972 301C936 301 900 301 864 301C828 301 792 301 756 301C720 301 684 301 648 301C612 301 576 301 540 301C504 301 468 301 432 301C396 301 360 301 324 301C288 301 252 301 216 301C180 301 144 301 108 301C72 301 36 301 18 301L0 301Z" fill="#a0001b"></path></svg>