<svg id="visual" viewBox="0 0 1080 300" width="1080" height="300" xmlns="http://www.w3.org/2000/svg" xmlns:xlink="http://www.w3.org/1999/xlink" version="1.1"><rect x="0" y="0" width="1080" height="300" fill="#001220"></rect><path d="M0 90L20 86.8C40 83.7 80 77.3 120 74.8C160 72.3 200 73.7 240 76.7C280 79.7 320 84.3 360 81.3C400 78.3 440 67.7 480 65C520 62.3 560 67.7 600 70.2C640 72.7 680 72.3 720 74.5C760 76.7 800 81.3 840 83.3C880 85.3 920 84.7 960 82C1000 79.3 1040 74.7 1060 72.3L1080 70L1080 0L1060 0C1040 0 1000 0 960 0C920 0 880 0 840 0C800 0 760 0 720 0C680 0 640 0 600 0C560 0 520 0 480 0C440 0 400 0 360 0C320 0 280 0 240 0C200 0 160 0 120 0C80 0 40 0 20 0L0 0Z" fill="#df0228"></path><path d="M0 49L20 48C40 47 80 45 120 47.7C160 50.3 200 57.7 240 62.8C280 68 320 71 360 68.2C400 65.3 440 56.7 480 56.8C520 57 560 66 600 65.7C640 65.3 680 55.7 720 51.3C760 47 800 48 840 50.2C880 52.3 920 55.7 960 58.7C1000 61.7 1040 64.3 1060 65.7L1080 67L1080 0L1060 0C1040 0 1000 0 960 0C920 0 880 0 840 0C800 0 760 0 720 0C680 0 640 0 600 0C560 0 520 0 480 0C440 0 400 0 360 0C320 0 280 0 240 0C200 0 160 0 120 0C80 0 40 0 20 0L0 0Z" fill="#ca0124"></path><path d="M0 38L20 36.3C40 34.7 80 31.3 120 32C160 32.7 200 37.3 240 41.7C280 46 320 50 360 50.3C400 50.7 440 47.3 480 42.7C520 38 560 32 600 30.3C640 28.7 680 31.3 720 36C760 40.7 800 47.3 840 47.8C880 48.3 920 42.7 960 39.5C1000 36.3 1040 35.7 1060 35.3L1080 35L1080 0L1060 0C1040 0 1000 0 960 0C920 0 880 0 840 0C800 0 760 0 720 0C680 0 640 0 600 0C560 0 520 0 480 0C440 0 400 0 360 0C320 0 280 0 240 0C200 0 160 0 120 0C80 0 40 0 20 0L0 0Z" fill="#b50120"></path><path d="M0 24L20 24.8C40 25.7 80 27.3 120 27.3C160 27.3 200 25.7 240 25.8C280 26 320 28 360 28C400 28 440 26 480 26.2C520 26.3 560 28.7 600 29.3C640 30 680 29 720 26.8C760 24.7 800 21.3 840 18.5C880 15.7 920 13.3 960 15.5C1000 17.7 1040 24.3 1060 27.7L1080 31L1080 0L1060 0C1040 0 1000 0 960 0C920 0 880 0 840 0C800 0 760 0 720 0C680 0 640 0 600 0C560 0 520 0 480 0C440 0 400 0 360 0C320 0 280 0 240 0C200 0 160 0 120 0C80 0 40 0 20 0L0 0Z" fill="#a0001b"></path></svg>