<svg id="visual" viewBox="0 0 1080 300" width="1080" height="300" xmlns="http://www.w3.org/2000/svg" xmlns:xlink="http://www.w3.org/1999/xlink" version="1.1"><path d="M0 117L18 112.3C36 107.7 72 98.3 108 91.8C144 85.3 180 81.7 216 83.2C252 84.7 288 91.3 324 96.3C360 101.3 396 104.7 432 100.7C468 96.7 504 85.3 540 83.5C576 81.7 612 89.3 648 89.8C684 90.3 720 83.7 756 82.2C792 80.7 828 84.3 864 91C900 97.7 936 107.3 972 103.5C1008 99.7 1044 82.3 1062 73.7L1080 65L1080 0L1062 0C1044 0 1008 0 972 0C936 0 900 0 864 0C828 0 792 0 756 0C720 0 684 0 648 0C612 0 576 0 540 0C504 0 468 0 432 0C396 0 360 0 324 0C288 0 252 0 216 0C180 0 144 0 108 0C72 0 36 0 18 0L0 0Z" fill="#df0228"></path><path d="M0 72L18 70.7C36 69.3 72 66.7 108 65.2C144 63.7 180 63.3 216 67.2C252 71 288 79 324 76.8C360 74.7 396 62.3 432 60.8C468 59.3 504 68.7 540 72.7C576 76.7 612 75.3 648 74.5C684 73.7 720 73.3 756 74.3C792 75.3 828 77.7 864 74.8C900 72 936 64 972 58.5C1008 53 1044 50 1062 48.5L1080 47L1080 0L1062 0C1044 0 1008 0 972 0C936 0 900 0 864 0C828 0 792 0 756 0C720 0 684 0 648 0C612 0 576 0 540 0C504 0 468 0 432 0C396 0 360 0 324 0C288 0 252 0 216 0C180 0 144 0 108 0C72 0 36 0 18 0L0 0Z" fill="#bf0122"></path><path d="M0 42L18 42.2C36 42.3 72 42.7 108 43C144 43.3 180 43.7 216 39.8C252 36 288 28 324 29.7C360 31.3 396 42.7 432 47.7C468 52.7 504 51.3 540 46.8C576 42.3 612 34.7 648 30.5C684 26.3 720 25.7 756 29.3C792 33 828 41 864 45.5C900 50 936 51 972 50C1008 49 1044 46 1062 44.5L1080 43L1080 0L1062 0C1044 0 1008 0 972 0C936 0 900 0 864 0C828 0 792 0 756 0C720 0 684 0 648 0C612 0 576 0 540 0C504 0 468 0 432 0C396 0 360 0 324 0C288 0 252 0 216 0C180 0 144 0 108 0C72 0 36 0 18 0L0 0Z" fill="#a0001b"></path></svg>