<svg id="visual" viewBox="0 0 1080 300" width="1080" height="300" xmlns="http://www.w3.org/2000/svg" xmlns:xlink="http://www.w3.org/1999/xlink" version="1.1"><rect x="0" y="0" width="1080" height="300" fill="#001220"></rect><path d="M0 176L25.7 183.2C51.3 190.3 102.7 204.7 154.2 205.8C205.7 207 257.3 195 308.8 192.7C360.3 190.3 411.7 197.7 463 203.2C514.3 208.7 565.7 212.3 617 207.3C668.3 202.3 719.7 188.7 771.2 182.7C822.7 176.7 874.3 178.3 925.8 181.2C977.3 184 1028.7 188 1054.3 190L1080 192L1080 301L1054.3 301C1028.7 301 977.3 301 925.8 301C874.3 301 822.7 301 771.2 301C719.7 301 668.3 301 617 301C565.7 301 514.3 301 463 301C411.7 301 360.3 301 308.8 301C257.3 301 205.7 301 154.2 301C102.7 301 51.3 301 25.7 301L0 301Z" fill="#df0228"></path><path d="M0 222L25.7 225.5C51.3 229 102.7 236 154.2 234.7C205.7 233.3 257.3 223.7 308.8 224C360.3 224.3 411.7 234.7 463 238.8C514.3 243 565.7 241 617 236C668.3 231 719.7 223 771.2 222.8C822.7 222.7 874.3 230.3 925.8 231.7C977.3 233 1028.7 228 1054.3 225.5L1080 223L1080 301L1054.3 301C1028.7 301 977.3 301 925.8 301C874.3 301 822.7 301 771.2 301C719.7 301 668.3 301 617 301C565.7 301 514.3 301 463 301C411.7 301 360.3 301 308.8 301C257.3 301 205.7 301 154.2 301C102.7 301 51.3 301 25.7 301L0 301Z" fill="#ca0124"></path><path d="M0 246L25.7 246.7C51.3 247.3 102.7 248.7 154.2 249.7C205.7 250.7 257.3 251.3 308.8 252.5C360.3 253.7 411.7 255.3 463 253.5C514.3 251.7 565.7 246.3 617 244.7C668.3 243 719.7 245 771.2 245C822.7 245 874.3 243 925.8 246C977.3 249 1028.7 257 1054.3 261L1080 265L1080 301L1054.3 301C1028.7 301 977.3 301 925.8 301C874.3 301 822.7 301 771.2 301C719.7 301 668.3 301 617 301C565.7 301 514.3 301 463 301C411.7 301 360.3 301 308.8 301C257.3 301 205.7 301 154.2 301C102.7 301 51.3 301 25.7 301L0 301Z" fill="#b50120"></path><path d="M0 261L25.7 260.2C51.3 259.3 102.7 257.7 154.2 259.8C205.7 262 257.3 268 308.8 272C360.3 276 411.7 278 463 275.7C514.3 273.3 565.7 266.7 617 263.8C668.3 261 719.7 262 771.2 262C822.7 262 874.3 261 925.8 261.5C977.3 262 1028.7 264 1054.3 265L1080 266L1080 301L1054.3 301C1028.7 301 977.3 301 925.8 301C874.3 301 822.7 301 771.2 301C719.7 301 668.3 301 617 301C565.7 301 514.3 301 463 301C411.7 301 360.3 301 308.8 301C257.3 301 205.7 301 154.2 301C102.7 301 51.3 301 25.7 301L0 301Z" fill="#a0001b"></path></svg>