<svg id="visual" viewBox="0 0 1920 1080" width="1920" height="1080" xmlns="http://www.w3.org/2000/svg" xmlns:xlink="http://www.w3.org/1999/xlink" version="1.1"><rect x="0" y="0" width="1920" height="1080" fill="#001220"></rect><defs><linearGradient id="grad1_0" x1="43.8%" y1="100%" x2="100%" y2="0%"><stop offset="14.444444444444446%" stop-color="#001627" stop-opacity="1"></stop><stop offset="85.55555555555554%" stop-color="#001627" stop-opacity="1"></stop></linearGradient></defs><defs><linearGradient id="grad1_1" x1="43.8%" y1="100%" x2="100%" y2="0%"><stop offset="14.444444444444446%" stop-color="#001627" stop-opacity="1"></stop><stop offset="85.55555555555554%" stop-color="#001220" stop-opacity="1"></stop></linearGradient></defs><defs><linearGradient id="grad2_0" x1="0%" y1="100%" x2="56.3%" y2="0%"><stop offset="14.444444444444446%" stop-color="#001627" stop-opacity="1"></stop><stop offset="85.55555555555554%" stop-color="#001627" stop-opacity="1"></stop></linearGradient></defs><defs><linearGradient id="grad2_1" x1="0%" y1="100%" x2="56.3%" y2="0%"><stop offset="14.444444444444446%" stop-color="#001220" stop-opacity="1"></stop><stop offset="85.55555555555554%" stop-color="#001627" stop-opacity="1"></stop></linearGradient></defs><g transform="translate(1920, 1080)"><path d="M-972 0C-933.4 -75.4 -894.7 -150.9 -881.9 -236.3C-869 -321.7 -882 -417.1 -841.8 -486C-801.6 -554.9 -708.3 -597.2 -625.8 -625.8C-543.3 -654.4 -471.7 -669.2 -411 -711.9C-350.3 -754.6 -300.6 -825.2 -234 -873.2C-167.3 -921.2 -83.7 -946.6 0 -972L0 0Z" fill="#001423"></path><path d="M-486 0C-466.7 -37.7 -447.4 -75.4 -440.9 -118.2C-434.5 -160.9 -441 -208.6 -420.9 -243C-400.8 -277.4 -354.1 -298.6 -312.9 -312.9C-271.7 -327.2 -235.8 -334.6 -205.5 -355.9C-175.2 -377.3 -150.3 -412.6 -117 -436.6C-83.7 -460.6 -41.8 -473.3 0 -486L0 0Z" fill="#001627"></path></g><g transform="translate(0, 0)"><path d="M972 0C978.3 92 984.6 184.1 938.9 251.6C893.1 319.1 795.4 362 750 433C704.6 504 711.6 603.2 668.2 668.2C624.8 733.2 530.9 764.1 446.5 773.4C362.1 782.6 287.1 770.3 214.3 799.8C141.5 829.3 70.7 900.6 0 972L0 0Z" fill="#001423"></path><path d="M486 0C489.2 46 492.3 92 469.4 125.8C446.6 159.5 397.7 181 375 216.5C352.3 252 355.8 301.6 334.1 334.1C312.4 366.6 265.5 382 223.3 386.7C181 391.3 143.6 385.1 107.2 399.9C70.7 414.6 35.4 450.3 0 486L0 0Z" fill="#001627"></path></g></svg>